<svg xmlns="http://www.w3.org/2000/svg" width="22.465" height="18.346" viewBox="0 0 22.465 18.346">
  <g id="credit-card" transform="translate(0 -46.937)">
    <g id="Group_18" data-name="Group 18" transform="translate(0 46.937)">
      <g id="Group_17" data-name="Group 17" transform="translate(0 0)">
        <path id="Path_47" data-name="Path 47" d="M21.127,107.392h0l-.909-.1v-.629H0v2.246H19.469v.749H0v7.863a1.5,1.5,0,0,0,1.072,1.429A1.483,1.483,0,0,0,2.4,120.442l17.29,1.941a1.447,1.447,0,0,0,.161.009,1.5,1.5,0,0,0,1.489-1.343l1.116-12.007A1.5,1.5,0,0,0,21.127,107.392Zm-9.521,5.652a.374.374,0,0,1,.374-.374h5.991a.374.374,0,0,1,.374.374V116.4a.374.374,0,0,1-.374.374H11.981a.374.374,0,0,1-.374-.374v-3.357Zm-5.242-1.885h3a.374.374,0,0,1,0,.749h-3a.374.374,0,1,1,0-.749Zm3.37,1.872a.374.374,0,0,1-.374.374H8.237a.374.374,0,1,1,0-.749H9.36A.375.375,0,0,1,9.735,113.031Zm-7.863-1.872h3a.374.374,0,1,1,0,.749h-3a.374.374,0,0,1,0-.749ZM1.5,113.031a.375.375,0,0,1,.374-.374H6.739a.374.374,0,1,1,0,.749H1.872A.374.374,0,0,1,1.5,113.031Zm20.213-4.064-1.116,12.007a.748.748,0,0,1-.823.665L2.482,119.7a.749.749,0,0,1-.666-.676h16.9a1.5,1.5,0,0,0,1.5-1.5v-9.476l.829.089A.751.751,0,0,1,21.711,108.967Z" transform="translate(0 -104.045)"/>
        <rect id="Rectangle_15" data-name="Rectangle 15" width="5.242" height="2.608" transform="translate(12.356 9.373)"/>
        <path id="Path_48" data-name="Path 48" d="M20.22,48.435a1.5,1.5,0,0,0-1.5-1.5H1.5a1.5,1.5,0,0,0-1.5,1.5v.374H20.22Z" transform="translate(-0.002 -46.937)"/>
      </g>
    </g>
  </g>
</svg>
