<svg xmlns="http://www.w3.org/2000/svg" width="35.11" height="25.665" viewBox="0 0 35.11 25.665">
  <g id="delivery-truck" transform="translate(0 -68.867)">
    <g id="Group_7" data-name="Group 7" transform="translate(0 68.867)">
      <g id="Group_6" data-name="Group 6" transform="translate(0 0)">
        <path id="Path_1" data-name="Path 1" d="M28.424,77.072h-2.21l.666-7.647c0-.014,0-.028,0-.041s0,0,0,0h0a.514.514,0,0,0-.31-.471l0,0-.035-.013-.013,0-.03-.008-.021-.005-.027,0-.025,0H15.841a.514.514,0,1,0,0,1.029h9.965L24.782,81.647v0l-.258,2.965H6.653l.3-3.086h3.4a.514.514,0,1,0,0-1.029h-3.3l.631-6.514H13.1a.514.514,0,1,0,0-1.029H7.782l.3-3.063h5.7a.514.514,0,1,0,0-1.029H7.612a.514.514,0,0,0-.5.406v.005c0,.013,0,.026-.006.039s0,.008,0,.012v0l-.351,3.627H.514a.514.514,0,1,0,0,1.029H6.649L6.018,80.5H4.183a.514.514,0,1,0,0,1.029H5.918l-.344,3.547v0l-.531,5.484v0c0,.007,0,.014,0,.021s0,.019,0,.028h0c0,.013,0,.026,0,.039s0,.008,0,.013,0,.026.006.039,0,.008,0,.012,0,.019.007.029,0,.014.005.02l0,.006a.514.514,0,0,0,.122.2l0,0,.017.016a.51.51,0,0,0,.119.082l.027.013.009,0,.039.014h0l.046.012h.006l.045.007h0l.05,0h2.29a3.915,3.915,0,0,0,7.762,0h8.249a3.915,3.915,0,0,0,7.762,0H33.91l.051,0h.009l.04-.006.017,0,.03-.008.02-.007.025-.009.021-.009.022-.011.02-.011.021-.013.019-.013.02-.015.017-.014.02-.019.014-.014.021-.023.011-.012.021-.029.007-.01c.008-.013.016-.025.024-.039v0c.008-.014.015-.029.021-.044l0-.013c0-.011.008-.021.012-.032s0-.014.006-.022,0-.017.007-.026,0-.016,0-.024,0-.014,0-.021c.022-.175.425-3.406.6-5.5v-.006c.052-.6.085-1.109.085-1.42A6.694,6.694,0,0,0,28.424,77.072Zm-2.3,1.029h2.1l-.269,3.086h-2.1Zm-14.4,15.4a2.887,2.887,0,1,1,2.887-2.887A2.891,2.891,0,0,1,11.727,93.5Zm16.011,0a2.887,2.887,0,1,1,2.887-2.887A2.89,2.89,0,0,1,27.738,93.5Zm5.717-3.4H31.619a3.915,3.915,0,0,0-7.762,0H15.608a3.915,3.915,0,0,0-7.762,0H6.121l.432-4.458H25l.051,0h.009l.04-.006.017,0,.031-.008.02-.007.026-.009.021-.01.023-.011.021-.012.021-.013.019-.013.02-.015.017-.015.019-.017.016-.015.018-.02.014-.016.016-.022.012-.017.014-.024.01-.018.012-.025.009-.02c0-.008.006-.016.009-.025l.007-.022.006-.024c0-.008,0-.016.006-.025s0-.016,0-.025,0-.017,0-.026v0l.258-2.959h2.658A3.684,3.684,0,0,1,31.462,83.9a4.22,4.22,0,0,0,2.492,1.7C33.8,87.181,33.563,89.212,33.455,90.1Zm.588-5.533a3.366,3.366,0,0,1-1.8-1.348,4.83,4.83,0,0,0-3.249-2l.266-3.055a5.666,5.666,0,0,1,4.826,5.6C34.081,83.951,34.067,84.231,34.042,84.568Z" transform="translate(0 -68.867)"/>
      </g>
    </g>
    <g id="Group_9" data-name="Group 9" transform="translate(9.841 88.73)">
      <g id="Group_8" data-name="Group 8">
        <path id="Path_2" data-name="Path 2" d="M145.394,358.524a1.886,1.886,0,1,0,1.886,1.886A1.888,1.888,0,0,0,145.394,358.524Zm0,2.743a.857.857,0,1,1,.857-.857A.858.858,0,0,1,145.394,361.267Z" transform="translate(-143.508 -358.524)"/>
      </g>
    </g>
    <g id="Group_11" data-name="Group 11" transform="translate(25.852 88.73)">
      <g id="Group_10" data-name="Group 10">
        <path id="Path_3" data-name="Path 3" d="M378.882,358.524a1.886,1.886,0,1,0,1.886,1.886A1.888,1.888,0,0,0,378.882,358.524Zm0,2.743a.857.857,0,1,1,.857-.857A.858.858,0,0,1,378.882,361.267Z" transform="translate(-376.996 -358.524)"/>
      </g>
    </g>
    <g id="Group_13" data-name="Group 13" transform="translate(1.84 77.072)">
      <g id="Group_12" data-name="Group 12">
        <path id="Path_4" data-name="Path 4" d="M29.863,188.527H27.348a.514.514,0,1,0,0,1.029h2.514a.514.514,0,1,0,0-1.029Z" transform="translate(-26.834 -188.527)"/>
      </g>
    </g>
  </g>
</svg>
