<svg xmlns="http://www.w3.org/2000/svg" width="30.754" height="30.754" viewBox="0 0 30.754 30.754">
  <path id="facebook_1_" data-name="facebook (1)" d="M26.612,0H4.146A4.144,4.144,0,0,0,0,4.144V26.61a4.144,4.144,0,0,0,4.144,4.144h11.08l.019-10.99H12.39a.674.674,0,0,1-.674-.671L11.7,15.551a.674.674,0,0,1,.674-.676h2.85V11.451c0-3.972,2.426-6.135,5.97-6.135H24.1a.674.674,0,0,1,.674.674V8.977a.674.674,0,0,1-.673.674H22.319c-1.927,0-2.3.916-2.3,2.26v2.963h4.234a.674.674,0,0,1,.669.753L24.5,19.17a.674.674,0,0,1-.669.594h-3.8l-.019,10.99h6.593a4.144,4.144,0,0,0,4.144-4.144V4.144A4.144,4.144,0,0,0,26.612,0Z" transform="translate(-0.002)" fill="#475993"/>
</svg>
