<svg xmlns="http://www.w3.org/2000/svg" width="27" height="16.2" viewBox="0 0 27 16.2">
  <g id="mastercard" transform="translate(0 -100.8)">
    <path id="Path_21" data-name="Path 21" d="M217.8,108.9a8.1,8.1,0,0,1-16.2,0h0a8.1,8.1,0,1,1,16.2,0Z" transform="translate(-190.8 0)" fill="#ffb600"/>
    <path id="Path_22" data-name="Path 22" d="M209.7,100.8a8.121,8.121,0,0,1,8.1,8.1h0a8.1,8.1,0,0,1-16.2,0" transform="translate(-190.8)" fill="#f7981d"/>
    <path id="Path_23" data-name="Path 23" d="M352.8,100.8a8.121,8.121,0,0,1,8.1,8.1h0a8.093,8.093,0,0,1-8.1,8.1" transform="translate(-333.9)" fill="#ff8500"/>
    <path id="Path_24" data-name="Path 24" d="M8.014,100.8A8.1,8.1,0,0,0,8.1,117a8.194,8.194,0,0,0,5.443-2.1h0a7.7,7.7,0,0,0,.814-.857H12.686a9.885,9.885,0,0,1-.6-.814h2.871a5.49,5.49,0,0,0,.471-.857H11.614a5.108,5.108,0,0,1-.343-.857h4.457a8.51,8.51,0,0,0,.429-2.571,11.062,11.062,0,0,0-.171-1.714H11.014a6.265,6.265,0,0,1,.214-.857h4.457a5.108,5.108,0,0,0-.343-.857H11.571a8.5,8.5,0,0,1,.471-.857h2.871a4.076,4.076,0,0,0-.643-.857H12.686a7.306,7.306,0,0,1,.814-.814,7.908,7.908,0,0,0-5.443-2.1C8.057,100.8,8.057,100.8,8.014,100.8Z" fill="#ff5050"/>
    <path id="Path_25" data-name="Path 25" d="M0,110.414a8.093,8.093,0,0,0,8.1,8.1,8.194,8.194,0,0,0,5.443-2.1h0a7.7,7.7,0,0,0,.814-.857H12.686a9.887,9.887,0,0,1-.6-.814h2.871a5.49,5.49,0,0,0,.471-.857H11.614a5.108,5.108,0,0,1-.343-.857h4.457a8.51,8.51,0,0,0,.429-2.571,11.062,11.062,0,0,0-.171-1.714H11.014a6.265,6.265,0,0,1,.214-.857h4.457a5.108,5.108,0,0,0-.343-.857H11.571a8.5,8.5,0,0,1,.471-.857h2.871a4.076,4.076,0,0,0-.643-.857H12.686a7.305,7.305,0,0,1,.814-.814,7.908,7.908,0,0,0-5.443-2.1H8.014" transform="translate(0 -1.514)" fill="#e52836"/>
    <path id="Path_26" data-name="Path 26" d="M149.686,118.514a8.194,8.194,0,0,0,5.443-2.1h0a7.7,7.7,0,0,0,.814-.857h-1.671a9.882,9.882,0,0,1-.6-.814h2.871a5.488,5.488,0,0,0,.471-.857H153.2a5.109,5.109,0,0,1-.343-.857h4.457a8.51,8.51,0,0,0,.429-2.571,11.063,11.063,0,0,0-.171-1.714H152.6a6.265,6.265,0,0,1,.214-.857h4.457a5.107,5.107,0,0,0-.343-.857h-3.771a8.495,8.495,0,0,1,.471-.857H156.5a4.076,4.076,0,0,0-.643-.857h-1.586a7.3,7.3,0,0,1,.814-.814,7.908,7.908,0,0,0-5.443-2.1H149.6" transform="translate(-141.586 -1.514)" fill="#cb2026"/>
    <g id="Group_15" data-name="Group 15" transform="translate(0.771 106.8)">
      <path id="Path_27" data-name="Path 27" d="M182.843,223.771l.129-.729a1.856,1.856,0,0,1-.214.043c-.3,0-.343-.171-.3-.257l.257-1.5h.471l.129-.814h-.429l.086-.514h-.857s-.514,2.829-.514,3.171a.643.643,0,0,0,.686.729A1.316,1.316,0,0,0,182.843,223.771Z" transform="translate(-172.643 -219.614)" fill="#fff"/>
      <path id="Path_28" data-name="Path 28" d="M210.4,230.633a1.363,1.363,0,0,0,1.5,1.5,2.225,2.225,0,0,0,.9-.129l.171-.814a2.569,2.569,0,0,1-.9.214c-.943,0-.771-.686-.771-.686h1.757a5.557,5.557,0,0,0,.129-.771,1.161,1.161,0,0,0-1.243-1.243C211.043,228.618,210.4,229.561,210.4,230.633Zm1.5-1.243c.471,0,.386.557.386.6h-.943C211.343,229.947,211.429,229.39,211.9,229.39Z" transform="translate(-199.9 -227.847)" fill="#fff"/>
      <path id="Path_29" data-name="Path 29" d="M298.357,216.957l.171-.943a2.106,2.106,0,0,1-.729.214c-.6,0-.857-.471-.857-.986,0-1.029.514-1.586,1.114-1.586a1.431,1.431,0,0,1,.771.257l.129-.9a3.013,3.013,0,0,0-.986-.214c-.986,0-1.971.857-1.971,2.486,0,1.071.514,1.8,1.543,1.8A3.846,3.846,0,0,0,298.357,216.957Z" transform="translate(-280.914 -212.8)" fill="#fff"/>
      <path id="Path_30" data-name="Path 30" d="M88.029,227.2a3.035,3.035,0,0,0-1.029.171l-.129.729a2.533,2.533,0,0,1,.943-.171c.3,0,.557.043.557.3,0,.171-.043.214-.043.214h-.386c-.729,0-1.543.3-1.543,1.286,0,.771.514.943.814.943a1.288,1.288,0,0,0,.9-.386l-.043.343h.771l.343-2.357A1.016,1.016,0,0,0,88.029,227.2Zm.171,1.929c0,.129-.086.814-.6.814a.335.335,0,0,1-.343-.343c0-.214.129-.514.771-.514A.676.676,0,0,0,88.2,229.129Z" transform="translate(-82.543 -226.429)" fill="#fff"/>
      <path id="Path_31" data-name="Path 31" d="M136.186,229.914a1.1,1.1,0,0,0,1.286-1.114c0-1.071-1.029-.857-1.029-1.286,0-.214.171-.3.471-.3.129,0,.6.043.6.043l.129-.771a3.254,3.254,0,0,0-.814-.086c-.643,0-1.286.257-1.286,1.114,0,.986,1.071.9,1.071,1.286,0,.257-.3.3-.514.3a2.8,2.8,0,0,1-.771-.129l-.129.771C135.243,229.829,135.457,229.914,136.186,229.914Z" transform="translate(-128.729 -225.671)" fill="#fff"/>
      <path id="Path_32" data-name="Path 32" d="M429.643,214.4l-.171,1.157a1.188,1.188,0,0,0-.814-.429c-.771,0-1.457.943-1.457,2.057,0,.686.343,1.414,1.071,1.414a1.144,1.144,0,0,0,.814-.343l-.043.3h.857l.643-4.114Zm-.386,2.271c0,.471-.214,1.071-.686,1.071-.3,0-.471-.257-.471-.686,0-.686.3-1.114.686-1.114C429.086,215.943,429.257,216.157,429.257,216.671Z" transform="translate(-405.086 -214.314)" fill="#fff"/>
      <path id="Path_33" data-name="Path 33" d="M15.214,218.514l.514-3.086.086,3.086h.6l1.114-3.086-.471,3.086h.9l.686-4.114H17.229l-.857,2.529-.043-2.529H15.086l-.686,4.114Z" transform="translate(-14.4 -214.314)" fill="#fff"/>
      <path id="Path_34" data-name="Path 34" d="M260.943,232.143c.257-1.414.3-2.571.9-2.357a3.364,3.364,0,0,1,.3-.986h-.171c-.386,0-.686.514-.686.514l.086-.471h-.814L260,232.186h.943Z" transform="translate(-246.843 -227.943)" fill="#fff"/>
      <path id="Path_35" data-name="Path 35" d="M348.029,227.2a3.035,3.035,0,0,0-1.029.171l-.129.729a2.533,2.533,0,0,1,.943-.171c.3,0,.557.043.557.3,0,.171-.043.214-.043.214h-.386c-.729,0-1.543.3-1.543,1.286,0,.771.514.943.814.943a1.288,1.288,0,0,0,.9-.386l-.043.343h.771l.343-2.357A1,1,0,0,0,348.029,227.2Zm.214,1.929c0,.129-.086.814-.6.814a.335.335,0,0,1-.343-.343c0-.214.129-.514.771-.514C348.2,229.129,348.2,229.129,348.243,229.129Z" transform="translate(-328.614 -226.429)" fill="#fff"/>
      <path id="Path_36" data-name="Path 36" d="M395.343,232.143c.257-1.414.3-2.571.9-2.357a3.364,3.364,0,0,1,.3-.986h-.171c-.386,0-.686.514-.686.514l.086-.471h-.814l-.557,3.343h.943Z" transform="translate(-374.043 -227.943)" fill="#fff"/>
    </g>
    <g id="Group_16" data-name="Group 16" transform="translate(0.771 106.8)">
      <path id="Path_37" data-name="Path 37" d="M180,223.171a.643.643,0,0,0,.686.729,1.631,1.631,0,0,0,.643-.129l.129-.729a1.856,1.856,0,0,1-.214.043c-.3,0-.343-.171-.3-.257l.257-1.5h.471l.129-.814h-.429l.086-.514" transform="translate(-171.129 -219.614)" fill="#dce5e5"/>
      <path id="Path_38" data-name="Path 38" d="M218.4,230.633c0,1.2.386,1.5,1.071,1.5a2.225,2.225,0,0,0,.9-.129l.171-.814a2.569,2.569,0,0,1-.9.214c-.943,0-.771-.686-.771-.686h1.757a5.555,5.555,0,0,0,.129-.771,1.161,1.161,0,0,0-1.243-1.243C218.614,228.618,218.4,229.561,218.4,230.633Zm1.071-1.243c.471,0,.557.557.557.6h-1.114C218.914,229.947,219,229.39,219.471,229.39Z" transform="translate(-207.471 -227.847)" fill="#dce5e5"/>
      <path id="Path_39" data-name="Path 39" d="M305.929,216.957l.171-.943a2.106,2.106,0,0,1-.729.214c-.6,0-.857-.471-.857-.986,0-1.029.514-1.586,1.114-1.586a1.431,1.431,0,0,1,.771.257l.129-.9a3.013,3.013,0,0,0-.986-.214c-.986,0-1.543.857-1.543,2.486,0,1.071.086,1.8,1.114,1.8A3.846,3.846,0,0,0,305.929,216.957Z" transform="translate(-288.486 -212.8)" fill="#dce5e5"/>
      <path id="Path_40" data-name="Path 40" d="M86.871,229.657a2.533,2.533,0,0,1,.943-.171c.3,0,.557.043.557.3,0,.171-.043.214-.043.214h-.386c-.729,0-1.543.3-1.543,1.286,0,.771.514.943.814.943a1.288,1.288,0,0,0,.9-.386l-.043.343h.771l.343-2.357c0-.986-.857-1.029-1.2-1.029m.643,1.843a1.4,1.4,0,0,1-1.029.814.335.335,0,0,1-.343-.343c0-.214.129-.514.771-.514A3.5,3.5,0,0,0,88.629,230.643Z" transform="translate(-82.543 -227.943)" fill="#dce5e5"/>
      <path id="Path_41" data-name="Path 41" d="M136,229.829a3.628,3.628,0,0,0,.986.086,1.1,1.1,0,0,0,1.286-1.114c0-1.071-1.029-.857-1.029-1.286,0-.214.171-.3.471-.3.129,0,.6.043.6.043l.129-.771a3.254,3.254,0,0,0-.814-.086c-.643,0-.857.257-.857,1.114,0,.986.643.9.643,1.286,0,.257-.3.3-.514.3" transform="translate(-129.486 -225.671)" fill="#dce5e5"/>
      <path id="Path_42" data-name="Path 42" d="M436.988,216.314a1.188,1.188,0,0,0-.814-.429c-.771,0-1.029.943-1.029,2.057,0,.686-.086,1.414.643,1.414a1.144,1.144,0,0,0,.814-.343l-.043.3h.857l.643-4.114m-1.114,2.229c0,.471-.386,1.071-.857,1.071-.3,0-.471-.257-.471-.686,0-.686.3-1.114.686-1.114A.655.655,0,0,1,436.945,217.429Z" transform="translate(-412.602 -215.071)" fill="#dce5e5"/>
      <path id="Path_43" data-name="Path 43" d="M15.214,218.514l.514-3.086.086,3.086h.6l1.114-3.086-.471,3.086h.9l.686-4.114H17.571l-1.2,2.529-.043-2.529h-.471L14.4,218.514Z" transform="translate(-14.4 -214.314)" fill="#dce5e5"/>
      <path id="Path_44" data-name="Path 44" d="M260.8,232.143h.9c.257-1.414.3-2.571.9-2.357a3.364,3.364,0,0,1,.3-.986h-.171c-.386,0-.686.514-.686.514l.086-.471" transform="translate(-247.6 -227.943)" fill="#dce5e5"/>
      <path id="Path_45" data-name="Path 45" d="M346.871,229.657a2.533,2.533,0,0,1,.943-.171c.3,0,.557.043.557.3,0,.171-.043.214-.043.214h-.386c-.729,0-1.543.3-1.543,1.286,0,.771.514.943.814.943a1.288,1.288,0,0,0,.9-.386l-.043.343h.771l.343-2.357c0-.986-.857-1.029-1.2-1.029m.643,1.843a1.4,1.4,0,0,1-1.029.814.335.335,0,0,1-.343-.343c0-.214.129-.514.771-.514A3.77,3.77,0,0,0,348.629,230.643Z" transform="translate(-328.614 -227.943)" fill="#dce5e5"/>
      <path id="Path_46" data-name="Path 46" d="M395.2,232.143h.9c.257-1.414.3-2.571.9-2.357a3.364,3.364,0,0,1,.3-.986h-.171c-.386,0-.686.514-.686.514l.086-.471" transform="translate(-374.8 -227.943)" fill="#dce5e5"/>
    </g>
  </g>
</svg>
