<svg xmlns="http://www.w3.org/2000/svg" width="27" height="27" viewBox="0 0 27 27">
  <g id="speech-bubble_1_" data-name="speech-bubble (1)" transform="translate(-0.003)">
    <path id="Path_5" data-name="Path 5" d="M23.046,3.956A13.5,13.5,0,0,0,3.389,22.445l.14.112A6.431,6.431,0,0,1,.752,25.7a.524.524,0,0,0,.152.988,7.686,7.686,0,0,0,5.74-1.566l.028.022A13.5,13.5,0,0,0,23.046,3.956Zm-5.1,15.319c-.3.3-.612.584-.892.9a1.758,1.758,0,0,1-1.509.572,6.216,6.216,0,0,1-2.4-.7A13.055,13.055,0,0,1,8.81,16.649a11.982,11.982,0,0,1-2.115-3.524,4.622,4.622,0,0,1-.354-1.964,1.616,1.616,0,0,1,.5-1.077c.337-.32.651-.651.982-.976a.933.933,0,0,1,1.4,0c.269.264.527.527.791.791s.516.511.769.769a.934.934,0,0,1,0,1.437c-.32.325-.64.651-.971.965a.2.2,0,0,0-.051.258,5.664,5.664,0,0,0,.875,1.4,9.98,9.98,0,0,0,2.452,2.228c.2.129.426.219.64.337A.192.192,0,0,0,14,17.244c.32-.331.651-.657.976-.982a.923.923,0,0,1,1.4,0c.527.522,1.049,1.044,1.571,1.571A.944.944,0,0,1,17.95,19.275Zm-4.977-8.72.168-1.2a5.368,5.368,0,0,1,4.54,4.4l-1.2.208a4.161,4.161,0,0,0-3.513-3.406Zm6.661,3.2a7.684,7.684,0,0,0-6.5-6.307l.168-1.2a8.908,8.908,0,0,1,7.53,7.3Z" transform="translate(0)"/>
  </g>
</svg>
