<svg id="twitter_1_" data-name="twitter (1)" xmlns="http://www.w3.org/2000/svg" xmlns:xlink="http://www.w3.org/1999/xlink" width="30.429" height="30.429" viewBox="0 0 30.429 30.429">
  <defs>
    <linearGradient id="linear-gradient" x1="0.332" y1="0.141" x2="0.585" y2="0.682" gradientUnits="objectBoundingBox">
      <stop offset="0" stop-color="#00c3ff"/>
      <stop offset="1" stop-color="#00b0ed"/>
    </linearGradient>
    <linearGradient id="linear-gradient-2" x1="0.738" y1="0.628" x2="-0.899" y2="-0.25" gradientUnits="objectBoundingBox">
      <stop offset="0" stop-color="#00b0ed" stop-opacity="0"/>
      <stop offset="1" stop-color="#00a2ce"/>
    </linearGradient>
    <linearGradient id="linear-gradient-3" x1="0.5" y1="0.27" x2="0.5" y2="0.926" xlink:href="#linear-gradient-2"/>
    <linearGradient id="linear-gradient-4" x1="0.946" y1="0.922" x2="0.342" y2="0.273" xlink:href="#linear-gradient-2"/>
  </defs>
  <path id="Path_62" data-name="Path 62" d="M24.986,29.908a91.908,91.908,0,0,1-19.544,0A5.541,5.541,0,0,1,.521,24.986a91.906,91.906,0,0,1,0-19.543A5.541,5.541,0,0,1,5.443.521a91.906,91.906,0,0,1,19.543,0,5.541,5.541,0,0,1,4.922,4.922,91.906,91.906,0,0,1,0,19.543A5.54,5.54,0,0,1,24.986,29.908Zm0,0" fill="url(#linear-gradient)"/>
  <path id="Path_63" data-name="Path 63" d="M55.373,33.664A4.916,4.916,0,0,0,51.006,29.3a81.587,81.587,0,0,0-17.342,0A4.917,4.917,0,0,0,29.3,33.664a81.585,81.585,0,0,0,0,17.342,4.917,4.917,0,0,0,4.368,4.368,81.556,81.556,0,0,0,17.342,0,4.916,4.916,0,0,0,4.368-4.368A81.556,81.556,0,0,0,55.373,33.664Zm0,0" transform="translate(-27.12 -27.12)" fill="url(#linear-gradient-2)"/>
  <path id="Path_64" data-name="Path 64" d="M7.672,409.8q.031.315.065.631a5.541,5.541,0,0,0,4.922,4.922,91.9,91.9,0,0,0,19.543,0,5.54,5.54,0,0,0,4.922-4.922q.034-.315.065-.631Zm0,0" transform="translate(-7.216 -385.449)" fill="url(#linear-gradient-3)"/>
  <path id="Path_65" data-name="Path 65" d="M121.959,133.311l-6.316-6.316a7.538,7.538,0,0,1-1.8.754,5.159,5.159,0,0,1-.635.13,3.922,3.922,0,0,0-6.73,2.739c0,.078,0,.156.007.233a3.784,3.784,0,0,0,.071.552,10.744,10.744,0,0,1-6.646-2.658h0l-1.322-1.322a3.9,3.9,0,0,0,.729,4.761,4.346,4.346,0,0,0,.331.33l.029.032a3.843,3.843,0,0,1-1.72-.478,3.806,3.806,0,0,0,1.274,2.872l1.113,1.122a2.166,2.166,0,0,1-.975-.093,3.749,3.749,0,0,0,1.123,1.764l1.559,1.567a8.071,8.071,0,0,1-4.728,1.053l9.458,9.242a92.005,92.005,0,0,0,9.744-.521,5.541,5.541,0,0,0,4.922-4.922A92.051,92.051,0,0,0,121.959,133.311Zm0,0" transform="translate(-91.536 -119.166)" fill="url(#linear-gradient-4)"/>
  <path id="Path_66" data-name="Path 66" d="M116.178,128.518a7.1,7.1,0,0,1-2.023.562l-.008-.047a3.765,3.765,0,0,0,1.493-2.038,7.538,7.538,0,0,1-1.8.754,5.2,5.2,0,0,1-.635.13,3.922,3.922,0,0,0-6.73,2.739c0,.078,0,.156.007.232a3.784,3.784,0,0,0,.071.552,10.963,10.963,0,0,1-7.969-3.98,3.879,3.879,0,0,0,1.19,5.128,4.09,4.09,0,0,1-1.821-.483,3.923,3.923,0,0,0,3.2,3.864,3.711,3.711,0,0,1-1.784.037,3.783,3.783,0,0,0,3.568,2.713,7.815,7.815,0,0,1-5.614,1.671,11.084,11.084,0,0,0,17-9.37q0-.115,0-.229c0-.045,0-.09,0-.136s0-.064,0-.1A6.935,6.935,0,0,0,116.178,128.518Zm0,0" transform="translate(-91.533 -119.166)" fill="#fff"/>
</svg>
