<svg xmlns="http://www.w3.org/2000/svg" width="52.396" height="15.885" viewBox="0 0 52.396 15.885">
  <g id="visa" transform="translate(0 -175.6)">
    <path id="Path_6" data-name="Path 6" d="M184.8,195.37l2.661-14.97h4.158l-2.578,14.97Z" transform="translate(-165.588 -4.301)" fill="#3c58bf"/>
    <path id="Path_7" data-name="Path 7" d="M184.8,195.37l3.41-14.97h3.41l-2.578,14.97Z" transform="translate(-165.588 -4.301)" fill="#293688"/>
    <path id="Path_8" data-name="Path 8" d="M260.725,176.265a10.549,10.549,0,0,0-3.826-.665c-4.158,0-7.152,2.079-7.152,5.073,0,2.246,2.079,3.41,3.743,4.158s2.162,1.248,2.162,1.913c0,1-1.331,1.5-2.5,1.5a9.04,9.04,0,0,1-3.992-.832l-.582-.249L248,190.57a13.485,13.485,0,0,0,4.741.832c4.408,0,7.319-2.079,7.319-5.24,0-1.747-1.081-3.077-3.576-4.158-1.5-.749-2.412-1.164-2.412-1.913,0-.665.749-1.331,2.412-1.331a7.628,7.628,0,0,1,3.16.582l.416.166.665-3.244Z" transform="translate(-222.218)" fill="#3c58bf"/>
    <path id="Path_9" data-name="Path 9" d="M260.725,176.265a10.549,10.549,0,0,0-3.826-.665c-4.158,0-6.4,2.079-6.4,5.073,0,2.246,1.331,3.41,2.994,4.158s2.162,1.248,2.162,1.913c0,1-1.331,1.5-2.5,1.5a9.04,9.04,0,0,1-3.992-.832l-.582-.249L248,190.57a13.485,13.485,0,0,0,4.741.832c4.408,0,7.319-2.079,7.319-5.24,0-1.747-1.081-3.077-3.576-4.158-1.5-.749-2.412-1.164-2.412-1.913,0-.665.749-1.331,2.412-1.331a7.628,7.628,0,0,1,3.16.582l.416.166.665-3.244Z" transform="translate(-222.218)" fill="#293688"/>
    <path id="Path_10" data-name="Path 10" d="M366.8,180.4c-1,0-1.747.083-2.162,1.081L358.4,195.37h4.491l.832-2.5h5.323l.5,2.5h3.992l-3.493-14.97Zm-1.913,9.98c.25-.749,1.663-4.408,1.663-4.408s.333-.915.582-1.5l.25,1.414s.832,3.743,1,4.574h-3.493Z" transform="translate(-321.141 -4.301)" fill="#3c58bf"/>
    <path id="Path_11" data-name="Path 11" d="M367.8,180.4c-1,0-1.747.083-2.162,1.081L358.4,195.37h4.491l.832-2.5h5.323l.5,2.5h3.992l-3.493-14.97Zm-2.911,9.98c.333-.832,1.663-4.408,1.663-4.408s.333-.915.582-1.5l.25,1.414s.832,3.743,1,4.574h-3.493Z" transform="translate(-321.141 -4.301)" fill="#293688"/>
    <path id="Path_12" data-name="Path 12" d="M57.438,191.6l-.416-2.162a12.056,12.056,0,0,0-5.822-6.57l3.743,13.307h4.491L66.17,181.2H61.679Z" transform="translate(-45.877 -5.018)" fill="#3c58bf"/>
    <path id="Path_13" data-name="Path 13" d="M57.438,191.6l-.416-2.162a12.056,12.056,0,0,0-5.822-6.57l3.743,13.307h4.491L66.17,181.2H62.511Z" transform="translate(-45.877 -5.018)" fill="#293688"/>
    <path id="Path_14" data-name="Path 14" d="M0,180.4l.749.166c5.323,1.248,8.982,4.408,10.4,8.151l-1.5-7.069c-.25-1-1-1.248-1.913-1.248Z" transform="translate(0 -4.301)" fill="#ffbc00"/>
    <path id="Path_15" data-name="Path 15" d="M0,180.4H0c5.323,1.248,9.731,4.491,11.145,8.234l-1.414-5.9a2.03,2.03,0,0,0-2-1.58Z" transform="translate(0 -4.301)" fill="#f7981d"/>
    <path id="Path_16" data-name="Path 16" d="M0,180.4H0c5.323,1.248,9.731,4.491,11.145,8.234l-1-3.244A2.933,2.933,0,0,0,8.4,182.978Z" transform="translate(0 -4.301)" fill="#ed7c00"/>
    <g id="Group_14" data-name="Group 14" transform="translate(5.406 177.762)">
      <path id="Path_17" data-name="Path 17" d="M62.313,204.717l-2.828-2.828-1.331,3.16-.333-2.079A12.056,12.056,0,0,0,52,196.4l3.743,13.307h4.491Z" transform="translate(-52 -196.4)" fill="#051244"/>
      <path id="Path_18" data-name="Path 18" d="M189.042,292.859l-3.576-3.659-.665,3.659Z" transform="translate(-170.994 -279.552)" fill="#051244"/>
      <path id="Path_19" data-name="Path 19" d="M255.236,274.8h0c.333.333.5.582.416.915,0,1-1.331,1.5-2.5,1.5a9.039,9.039,0,0,1-3.992-.832l-.582-.249-.582,3.41a13.485,13.485,0,0,0,4.741.832c2.661,0,4.824-.749,6.071-2.079Z" transform="translate(-227.624 -266.65)" fill="#051244"/>
      <path id="Path_20" data-name="Path 20" d="M364,230.5h3.909l.832-2.5h5.323l.5,2.5h3.992l-1.414-6.071-4.99-4.824.25,1.331s.832,3.743,1,4.574H369.9c.333-.832,1.663-4.408,1.663-4.408s.333-.915.582-1.5" transform="translate(-331.564 -217.188)" fill="#051244"/>
    </g>
  </g>
</svg>
