<svg id="youtube" xmlns="http://www.w3.org/2000/svg" width="30.572" height="30.572" viewBox="0 0 30.572 30.572">
  <circle id="Ellipse_2" data-name="Ellipse 2" cx="15.286" cy="15.286" r="15.286" transform="translate(0 0)" fill="#d42428"/>
  <path id="Path_67" data-name="Path 67" d="M90.995,69.38A15.287,15.287,0,0,1,69.376,91Z" transform="translate(-64.901 -64.905)" fill="#cc202d"/>
  <path id="Path_68" data-name="Path 68" d="M158.454,100.554,148.166,90.267l-.83.83-.83-.83-.909.909.611.611-.2.2L144.425,90.4l-.068.068-2.135-2.135-.909.909.249.249-.365.365-1.539-1.539-.638.638,1.5,3.613-.676,2.774,1.847,1.847-4.671.327-.071,8.106,7.517,7.527A15.321,15.321,0,0,0,158.454,100.554Z" transform="translate(-128.115 -82.624)" fill="#ba202e"/>
  <path id="Path_69" data-name="Path 69" d="M138.143,101.418h-.986l0-.572a.464.464,0,0,1,.464-.462h.063a.465.465,0,0,1,.465.462Zm-3.7-1.227a.421.421,0,0,0-.454.374v2.784a.464.464,0,0,0,.91,0v-2.784A.422.422,0,0,0,134.445,100.191Zm6-1.557v5.3A2.389,2.389,0,0,1,138,106.24H127.933a2.389,2.389,0,0,1-2.449-2.31v-5.3a2.389,2.389,0,0,1,2.449-2.31H138A2.39,2.39,0,0,1,140.449,98.634ZM128.6,104.506V98.927h1.248V98.1l-3.327-.005v.812l1.039,0v5.595H128.6Zm3.741-4.748H131.3v2.979a5.392,5.392,0,0,1,0,.722c-.085.231-.465.476-.613.025a5.961,5.961,0,0,1,0-.727l0-3h-1.035l0,2.952c0,.453-.01.79,0,.944.025.271.016.587.268.767a1.256,1.256,0,0,0,1.59-.532l0,.615h.835V99.758Zm3.329,3.411,0-2.48c0-.945-.708-1.511-1.668-.747l0-1.844-1.04,0-.005,6.363.855-.013.078-.4C134.989,105.058,135.676,104.371,135.674,103.169Zm3.257-.328-.781,0c0,.031,0,.067,0,.106v.435a.426.426,0,0,1-.426.423h-.153a.426.426,0,0,1-.427-.423V102.24h1.787v-.672a10.635,10.635,0,0,0-.053-1.263c-.128-.889-1.375-1.03-2.006-.575a1.178,1.178,0,0,0-.437.588,3.308,3.308,0,0,0-.133,1.048v1.478C136.3,105.3,139.286,104.955,138.931,102.841Zm-4-8.027a.7.7,0,0,0,.25.316.727.727,0,0,0,.426.118.66.66,0,0,0,.4-.124.951.951,0,0,0,.292-.373l-.02.408h1.16V90.226h-.913v3.839a.38.38,0,0,1-.761,0V90.226h-.953v3.327c0,.424.007.706.02.85A1.452,1.452,0,0,0,134.928,94.814Zm-3.515-2.786a4.112,4.112,0,0,1,.118-1.11,1.187,1.187,0,0,1,1.213-.883,1.443,1.443,0,0,1,.691.156,1.15,1.15,0,0,1,.445.4,1.592,1.592,0,0,1,.215.514,4.085,4.085,0,0,1,.058.808v1.248a6.8,6.8,0,0,1-.054,1.008,1.591,1.591,0,0,1-.228.6,1.083,1.083,0,0,1-.447.41,1.418,1.418,0,0,1-.629.132,1.74,1.74,0,0,1-.67-.113.92.92,0,0,1-.428-.342,1.505,1.505,0,0,1-.218-.553,5.309,5.309,0,0,1-.065-.973V92.028Zm.908,1.96a.463.463,0,1,0,.922,0V91.361a.463.463,0,1,0-.922,0Zm-3.21,1.326h1.095V91.53l1.293-3.241h-1.2l-.687,2.408-.7-2.414h-1.184l1.376,3.249Z" transform="translate(-117.389 -82.588)" fill="#fff"/>
</svg>
